:SAMPLES-PER-SECOND 30
:FULLY-SPECIFIED
:DEGREES
415
root  -9.98064 39.0225 9.50388 179.464 38.7368 179.33
RightUpLeg  -6.77511 1.35221 -8.79457
RightLeg  20.6062 -9.46238 -4.13305
RightFoot  -9.81966 -0.278079 15.7956
RightToes  -1.74624e-010 0 -3.6325e-017
Spine  4.19204 0.794208 -6.35282
Spine1  27.0828 0.399416 0.604873
HEad  -12.0807 30.144 -10.1801
LeftShoulder1  0.697565 0.197534 -14.1607
LeftArm  10.7827 2.51147 -55.4316
LeftForeArm  72.4309 -79.3972 -80.1373
LeftHand  -2.20295 -3.37083 28.9042
RightShoulder  0.68238 0.110777 11.8377
RightArm  12.0131 -13.9686 61.3044
RightForeArm  151.916 64.9848 157.008
RightHand  -1.37954 5.56604 -14.8439
LeftUpLeg  -7.55294 -2.29587 1.87385
LeftLeg  23.7007 4.17088 2.34051
LeftFoot  -14.7392 -0.0992904 -6.31699
LeftToes  3.7286e-011 -1.5702e-010 -9.70233e-012
416
root  -10.002 39.0947 9.49167 179.745 38.9184 179.487
RightUpLeg  -6.3699 0.372169 -8.75512
RightLeg  19.2047 -8.6149 -3.64953
RightFoot  -9.33662 -0.340578 15.7247
RightToes  -1.74624e-010 0 -3.6325e-017
Spine  4.08619 0.72171 -6.18979
Spine1  27.142 0.399852 0.457937
HEad  -12.3529 30.0398 -10.2495
LeftShoulder1  0.725702 0.0780602 -14.256
LeftArm  10.1923 2.64643 -54.7798
LeftForeArm  71.5345 -79.3729 -78.6968
LeftHand  -2.26546 -3.44267 29.4555
RightShoulder  0.676364 0.125088 11.5683
RightArm  11.9324 -13.8357 61.3507
RightForeArm  151.795 64.8195 157.157
RightHand  -1.3753 5.50929 -14.8721
LeftUpLeg  -7.32001 -2.28813 1.94567
LeftLeg  22.8681 4.4198 2.37895
LeftFoot  -14.4682 -0.0839285 -6.24563
LeftToes  3.7286e-011 -1.5702e-010 -9.70233e-012
417
root  -10.0013 39.1316 9.48946 179.87 39.0157 179.561
RightUpLeg  -6.09099 -0.456675 -8.69592
RightLeg  18.3654 -7.95167 -3.4402
RightFoot  -9.11904 -0.369945 15.7649
RightToes  -1.74624e-010 0 -3.6325e-017
Spine  4.03458 0.691039 -6.23565
Spine1  27.2698 0.344577 0.504552
HEad  -12.4374 29.9285 -10.3338
LeftShoulder1  0.745391 -0.0125619 -14.2719
LeftArm  10.1587 2.87644 -54.7029
LeftForeArm  70.8063 -79.3474 -77.6871
LeftHand  -2.28354 -3.46993 29.5914
RightShoulder  0.665396 0.0876577 11.4453
RightArm  11.582 -13.6393 61.3156
RightForeArm  151.754 64.6918 157.277
RightHand  -1.37591 5.45806 -14.946
LeftUpLeg  -7.09238 -2.81636 1.95379
LeftLeg  22.304 4.9647 2.57065
LeftFoot  -14.4209 -0.0850524 -6.3703
LeftToes  3.7286e-011 -1.5702e-010 -9.70233e-012
418
root  -9.97383 39.138 9.48283 -179.974 39.1666 179.699
RightUpLeg  -6.04979 -0.625023 -8.5784
RightLeg  18.1016 -7.66365 -3.31697
RightFoot  -9.0369 -0.384203 15.9363
RightToes  -1.74624e-010 0 -3.6325e-017
Spine  3.86853 0.684772 -6.15608
Spine1  27.5295 0.395629 0.370681
HEad  -12.4243 29.8973 -10.4164
LeftShoulder1  0.757643 -0.0709783 -14.2683
LeftArm  10.6262 3.12377 -54.9963
LeftForeArm  70.5964 -79.3382 -77.5903
LeftHand  -2.27765 -3.47429 29.505
RightShoulder  0.653989 0.0131389 11.5235
RightArm  11.1364 -13.4806 61.284
RightForeArm  151.759 64.6719 157.296
RightHand  -1.41307 5.49357 -15.2874
LeftUpLeg  -6.98896 -3.71589 2.00879
LeftLeg  22.1764 5.70561 2.88796
LeftFoot  -14.6395 -0.10462 -6.67109
LeftToes  3.7286e-011 -1.5702e-010 -9.70233e-012
419
root  -9.91178 39.1215 9.46136 -179.874 39.4063 179.783
RightUpLeg  -6.18881 -0.482562 -8.52603
RightLeg  18.3774 -7.46965 -3.13894
RightFoot  -9.23525 -0.358186 15.9465
RightToes  -1.74624e-010 0 -3.6325e-017
Spine  3.58043 0.687604 -6.05008
Spine1  27.8749 0.548281 0.0152745
HEad  -12.3565 29.9435 -10.393
LeftShoulder1  0.770205 -0.118686 -14.3426
LeftArm  11.4383 3.39924 -55.4619
LeftForeArm  70.444 -79.3314 -77.5636
LeftHand  -2.282 -3.51528 29.4295
RightShoulder  0.651541 -0.021339 11.6515
RightArm  10.7664 -13.4786 61.346
RightForeArm  151.607 64.7318 157.222
RightHand  -1.51184 5.6492 -16.1006
LeftUpLeg  -6.88617 -4.52481 2.038
LeftLeg  22.2767 6.43356 3.22567
LeftFoot  -15.0418 -0.13678 -7.01531
LeftToes  3.7286e-011 -1.5702e-010 -9.70233e-012
420
root  -9.80876 39.0841 9.42858 179.982 39.5565 179.598
RightUpLeg  -6.52524 -1.08837 -8.7455
RightLeg  19.3653 -6.9171 -2.91014
RightFoot  -9.76839 -0.285536 15.8503
RightToes  -1.74624e-010 0 -3.6325e-017
Spine  3.36886 0.706866 -6.36313
Spine1  28.0817 0.589212 -0.113879
HEad  -12.1856 29.9728 -10.2301
LeftShoulder1  0.785181 -0.156407 -14.5515
LeftArm  12.6197 3.73492 -56.0584
LeftForeArm  69.3122 -79.2834 -76.4441
LeftHand  -2.30173 -3.5508 29.5594
RightShoulder  0.649009 -0.0434777 11.7042
RightArm  10.5739 -13.7017 61.4359
RightForeArm  151.458 64.8137 157.127
RightHand  -1.61769 5.83536 -16.9201
LeftUpLeg  -6.65468 -5.12507 1.91667
LeftLeg  22.3588 6.94651 3.46771
LeftFoot  -15.531 -0.181744 -7.50054
LeftToes  3.7286e-011 -1.5702e-010 -9.70233e-012
421
root  -9.65669 39.0118 9.39842 179.607 39.5686 179.164
RightUpLeg  -7.3423 -2.88165 -9.22357
RightLeg  21.5304 -5.7093 -2.68565
RightFoot  -10.2552 -0.226539 16.4302
RightToes  -1.74624e-010 0 -3.6325e-017
Spine  3.35774 0.793467 -7.14586
Spine1  28.0352 0.495479 0.131015
HEad  -11.9556 29.9256 -10.0324
LeftShoulder1  0.782758 -0.110312 -14.7777
LeftArm  14.4054 3.90624 -56.9008
LeftForeArm  65.2232 -79.0728 -72.671
LeftHand  -2.32641 -3.53387 29.9139
RightShoulder  0.631808 -0.133957 11.6992
RightArm  10.493 -14.1924 61.5327
RightForeArm  151.598 64.8758 157.081
RightHand  -1.67697 5.96754 -17.324
LeftUpLeg  -6.40796 -5.31519 1.7453
LeftLeg  22.6075 6.84163 3.45764
LeftFoot  -16.2048 -0.254633 -8.26128
LeftToes  3.7286e-011 -1.5702e-010 -9.70233e-012
422
root  -9.44179 38.8788 9.38298 179.076 39.5658 178.562
RightUpLeg  -8.87512 -4.815 -9.87797
RightLeg  25.2318 -4.27537 -2.41071
RightFoot  -10.3095 -0.234924 18.0337
RightToes  -1.74624e-010 0 -3.6325e-017
Spine  3.50163 0.953212 -8.12991
Spine1  27.8469 0.440883 0.356834
HEad  -11.8661 29.8974 -9.96722
LeftShoulder1  0.749453 0.0528887 -14.8396
LeftArm  16.7596 3.64348 -57.9892
LeftForeArm  57.5718 -78.5462 -66.1248
LeftHand  -2.35175 -3.50858 30.3042
RightShoulder  0.612445 -0.244193 11.7478
RightArm  10.3904 -14.8811 61.7143
RightForeArm  151.887 64.9156 157.073
RightHand  -1.69298 6.03557 -17.3838
LeftUpLeg  -6.33806 -4.88795 1.63153
LeftLeg  23.4045 5.9955 3.17763
LeftFoot  -17.1851 -0.365296 -9.15244
LeftToes  3.7286e-011 -1.5702e-010 -9.70233e-012
423
root  -9.16281 38.694 9.38027 178.379 39.4448 177.823
RightUpLeg  -10.771 -6.18039 -10.6562
RightLeg  29.7986 -3.24213 -2.24406
RightFoot  -9.85638 -0.322754 19.5162
RightToes  -1.74624e-010 0 -3.6325e-017
Spine  3.76732 1.04892 -9.12127
Spine1  27.6766 0.39463 0.339647
HEad  -12.0302 30.0097 -10.142
LeftShoulder1  0.717255 0.191324 -14.7692
LeftArm  19.0902 2.96432 -59.0295
LeftForeArm  49.5127 -77.8064 -59.731
LeftHand  -2.36909 -3.50043 30.5426
RightShoulder  0.617004 -0.253214 11.9619
RightArm  10.2251 -15.5125 61.9547
RightForeArm  151.915 64.9869 157.006
RightHand  -1.68347 6.05443 -17.2619
LeftUpLeg  -6.38414 -4.35695 1.50292
LeftLeg  24.6658 5.01466 2.85877
LeftFoot  -18.2739 -0.49029 -9.88243
LeftToes  3.7286e-011 -1.5702e-010 -9.70233e-012
424
root  -8.82958 38.4988 9.3829 177.545 38.9752 177.016
RightUpLeg  -12.4355 -6.92949 -11.6285
RightLeg  33.8492 -3.38435 -2.69636
RightFoot  -9.10636 -0.447393 19.6017
RightToes  -1.74624e-010 0 -3.6325e-017
Spine  4.1339 0.978605 -10.0926
Spine1  27.6393 0.181586 0.29647
HEad  -12.2822 30.1914 -10.5208
LeftShoulder1  0.726717 0.149388 -14.7809
LeftArm  20.6891 1.98504 -59.773
LeftForeArm  44.9652 -77.3012 -56.3717
LeftHand  -2.36071 -3.45869 30.5758
RightShoulder  0.641016 -0.1779 12.2868
RightArm  10.0142 -15.8748 62.16
RightForeArm  151.623 65.1507 156.812
RightHand  -1.65502 6.03431 -17.0083
LeftUpLeg  -6.34283 -4.41862 1.28664
LeftLeg  25.9501 4.45404 2.70995
LeftFoot  -19.1839 -0.595764 -10.3458
LeftToes  3.7286e-011 -1.5702e-010 -9.70233e-012
425
root  -8.43788 38.3264 9.38595 176.772 38.2847 176.327
RightUpLeg  -13.6016 -7.17374 -12.7901
RightLeg  36.1568 -4.72678 -3.95231
RightFoot  -8.37864 -0.546879 18.7656
RightToes  -1.74624e-010 0 -3.6325e-017
Spine  4.45224 0.86256 -10.9072
Spine1  27.7849 -0.112169 0.414021
HEad  -12.3234 30.262 -10.9321
LeftShoulder1  0.760545 0.0184504 -14.9541
LeftArm  21.3358 0.640156 -60.3912
LeftForeArm  44.7939 -77.2764 -56.2217
LeftHand  -2.32672 -3.39885 30.3524
RightShoulder  0.653423 -0.142323 12.4701
RightArm  9.73424 -16.0992 62.372
RightForeArm  151.365 65.3706 156.563
RightHand  -1.62041 5.98145 -16.7385
LeftUpLeg  -6.11851 -4.87238 1.159
LeftLeg  26.9455 4.10231 2.61809
LeftFoot  -19.8946 -0.681155 -10.6757
LeftToes  3.7286e-011 -1.5702e-010 -9.70233e-012
